<?xml version="1.0" encoding="iso-8859-1"?>
<!-- Generator: Adobe Illustrator 19.0.0, SVG Export Plug-In . SVG Version: 6.00 Build 0)  -->
<svg xmlns="http://www.w3.org/2000/svg" xmlns:xlink="http://www.w3.org/1999/xlink" version="1.1" id="Capa_1" x="0px" y="0px" viewBox="0 0 480.008 480.008" style="enable-background:new 0 0 480.008 480.008;" xml:space="preserve" width="512px" height="512px">
<g>
	<g>
		<rect x="176.004" y="312.008" width="16" height="16" fill="#FFFFFF"/>
	</g>
</g>
<g>
	<g>
		<rect x="208.004" y="312.008" width="176" height="16" fill="#FFFFFF"/>
	</g>
</g>
<g>
	<g>
		<rect x="144.004" y="344.008" width="240" height="16" fill="#FFFFFF"/>
	</g>
</g>
<g>
	<g>
		<rect x="144.004" y="376.008" width="208" height="16" fill="#FFFFFF"/>
	</g>
</g>
<g>
	<g>
		<rect x="136.004" y="64.008" width="24" height="16" fill="#FFFFFF"/>
	</g>
</g>
<g>
	<g>
		<rect x="136.004" y="96.008" width="40" height="16" fill="#FFFFFF"/>
	</g>
</g>
<g>
	<g>
		<path d="M416.004,32.008h-92.176c-22.047-33.04-66.704-41.951-99.744-19.904c-7.881,5.259-14.645,12.023-19.904,19.904h-92.176    c-4.418,0-8,3.582-8,8v376h-40c-4.418,0-8,3.582-8,8v24c0,17.673,14.327,32,32,32h304c17.673,0,32-14.327,32-32v-408    C424.004,35.59,420.422,32.008,416.004,32.008z M215.641,43.923c10.001-17.252,28.422-27.884,48.363-27.915    c30.928,0.047,55.962,25.157,55.915,56.085c-0.03,19.941-10.663,38.362-27.915,48.363c-2.473,1.428-3.997,4.065-4,6.92v16.632h-16    V99.32l21.656-21.656l-11.312-11.312l-18.344,18.344L245.66,66.352l-11.312,11.312l21.656,21.656v44.688h-16v-16.632    c-0.003-2.855-1.527-5.492-4-6.92C209.247,104.945,200.13,70.68,215.641,43.923z M279.364,248.008l-15.36,19.2l-15.36-19.2    H279.364z M240.004,232.008v-40h16v40H240.004z M272.004,232.008v-40h16v40H272.004z M240.004,176.008v-16h48v16H240.004z     M88.004,464.008c-8.837,0-16-7.163-16-16v-16h288v16c-0.009,5.619,1.474,11.141,4.296,16H88.004z M408.004,448.008    c0,8.837-7.163,16-16,16s-16-7.163-16-16v-24c0-4.418-3.582-8-8-8h-248v-368h76.2c-2.763,7.701-4.184,15.819-4.2,24    c0.066,24.013,12.058,46.423,32,59.8v108.2c-0.001,1.817,0.617,3.581,1.752,5l32,40c2.759,3.451,7.794,4.011,11.244,1.252    c0.462-0.37,0.882-0.789,1.252-1.252l32-40c1.135-1.419,1.753-3.183,1.752-5v-108.2c19.942-13.377,31.934-35.787,32-59.8    c-0.016-8.181-1.437-16.299-4.2-24h76.2V448.008z" fill="#FFFFFF"/>
	</g>
</g>
<g>
</g>
<g>
</g>
<g>
</g>
<g>
</g>
<g>
</g>
<g>
</g>
<g>
</g>
<g>
</g>
<g>
</g>
<g>
</g>
<g>
</g>
<g>
</g>
<g>
</g>
<g>
</g>
<g>
</g>
</svg>
